# xmcd
#
# Track frame offsets:
#	150
#	22309
#	41229
#	61473
#	78406
#	93215
#	113232
#	139669
#	156386
#	173269
#	190788
#	208606
#	228537
#
# Disc length: 3349 seconds
#
# Revision: 1
# Processed by: cddbd v1.5.2PL0 Copyright (c) Steve Scherf et al.
# Submitted via: audiograbber 1.83.01
#
DISCID=ae0d130d
DTITLE=Laaz Rockit - Nothing's Sacred
DYEAR=1991
DGENRE=Metal
TTITLE0=In The Name Of The Father And The Gun
TTITLE1=Into The Asylum
TTITLE2=Greed Machine
TTITLE3=Too Far Gone
TTITLE4=Curiosity Kills
TTITLE5=Suicide City
TTITLE6=The Enemy Within
TTITLE7=Nobody's Child
TTITLE8=Silence Is A Lie
TTITLE9=Necropolis
TTITLE10=Ten Eyes (Bonus)
TTITLE11=Testimonial (Bonus)
TTITLE12=Plague (Bonus)
EXTD=
EXTT0=
EXTT1=
EXTT2=
EXTT3=
EXTT4=
EXTT5=
EXTT6=
EXTT7=
EXTT8=
EXTT9=
EXTT10=
EXTT11=
EXTT12=
PLAYORDER=
